<svg width="176" height="40" viewBox="0 0 176 40" fill="none" xmlns="http://www.w3.org/2000/svg">
<path d="M34.1422 5.85781C30.3647 2.08031 25.3422 0 20 0C14.6578 0 9.63531 2.08031 5.85781 5.85781C2.08031 9.63531 0 14.6578 0 20C0 25.3422 2.08039 30.3646 5.85781 34.1422C9.63523 37.9198 14.6578 40 20 40C25.3422 40 30.3647 37.9197 34.1422 34.1422C37.9197 30.3647 40 25.3422 40 20C40 14.6578 37.9196 9.63539 34.1422 5.85781Z" fill="#33CC95"/>
<g clip-path="url(#clip0_35212_417)">
<path d="M20.5714 8V33.1429" stroke="white" stroke-width="2" stroke-linecap="round" stroke-linejoin="round"/>
<path d="M26.2857 12.5714H17.7143C16.6534 12.5714 15.636 12.9929 14.8859 13.743C14.1357 14.4931 13.7143 15.5106 13.7143 16.5714C13.7143 17.6323 14.1357 18.6497 14.8859 19.3999C15.636 20.15 16.6534 20.5714 17.7143 20.5714H23.4286C24.4894 20.5714 25.5069 20.9929 26.257 21.743C27.0072 22.4932 27.4286 23.5106 27.4286 24.5714C27.4286 25.6323 27.0072 26.6497 26.257 27.3999C25.5069 28.15 24.4894 28.5714 23.4286 28.5714H13.7143" stroke="white" stroke-width="2" stroke-linecap="round" stroke-linejoin="round"/>
</g>
<path d="M75.7559 13.248V30H72.3959V19.104L67.9079 30H65.3639L60.8519 19.104V30H57.4919V13.248H61.3079L66.6359 25.704L71.9639 13.248H75.7559ZM91.7979 16.704L83.5659 36.288H79.9899L82.8699 29.664L77.5419 16.704H81.3099L84.7419 25.992L88.2219 16.704H91.7979ZM121.72 13.248L117.04 30H113.08L109.936 18.072L106.648 30L102.712 30.024L98.1999 13.248H101.8L104.752 26.256L108.16 13.248H111.904L115.12 26.184L118.096 13.248H121.72ZM123.05 23.304C123.05 21.96 123.314 20.768 123.842 19.728C124.386 18.688 125.114 17.888 126.026 17.328C126.954 16.768 127.986 16.488 129.122 16.488C130.114 16.488 130.978 16.688 131.714 17.088C132.466 17.488 133.066 17.992 133.514 18.6V16.704H136.898V30H133.514V28.056C133.082 28.68 132.482 29.2 131.714 29.616C130.962 30.016 130.09 30.216 129.098 30.216C127.978 30.216 126.954 29.928 126.026 29.352C125.114 28.776 124.386 27.968 123.842 26.928C123.314 25.872 123.05 24.664 123.05 23.304ZM133.514 23.352C133.514 22.536 133.354 21.84 133.034 21.264C132.714 20.672 132.282 20.224 131.738 19.92C131.194 19.6 130.61 19.44 129.986 19.44C129.362 19.44 128.786 19.592 128.258 19.896C127.73 20.2 127.298 20.648 126.962 21.24C126.642 21.816 126.482 22.504 126.482 23.304C126.482 24.104 126.642 24.808 126.962 25.416C127.298 26.008 127.73 26.464 128.258 26.784C128.802 27.104 129.378 27.264 129.986 27.264C130.61 27.264 131.194 27.112 131.738 26.808C132.282 26.488 132.714 26.04 133.034 25.464C133.354 24.872 133.514 24.168 133.514 23.352ZM143.539 12.24V30H140.179V12.24H143.539ZM150.219 12.24V30H146.859V12.24H150.219ZM165.899 23.064C165.899 23.544 165.867 23.976 165.803 24.36H156.083C156.163 25.32 156.499 26.072 157.091 26.616C157.683 27.16 158.411 27.432 159.275 27.432C160.523 27.432 161.411 26.896 161.939 25.824H165.563C165.179 27.104 164.443 28.16 163.355 28.992C162.267 29.808 160.931 30.216 159.347 30.216C158.067 30.216 156.915 29.936 155.891 29.376C154.883 28.8 154.091 27.992 153.515 26.952C152.955 25.912 152.675 24.712 152.675 23.352C152.675 21.976 152.955 20.768 153.515 19.728C154.075 18.688 154.859 17.888 155.867 17.328C156.875 16.768 158.035 16.488 159.347 16.488C160.611 16.488 161.739 16.76 162.731 17.304C163.739 17.848 164.515 18.624 165.059 19.632C165.619 20.624 165.899 21.768 165.899 23.064ZM162.419 22.104C162.403 21.24 162.091 20.552 161.483 20.04C160.875 19.512 160.131 19.248 159.251 19.248C158.419 19.248 157.715 19.504 157.139 20.016C156.579 20.512 156.235 21.208 156.107 22.104H162.419ZM172.263 19.464V25.896C172.263 26.344 172.367 26.672 172.575 26.88C172.799 27.072 173.167 27.168 173.679 27.168H175.239V30H173.127C170.295 30 168.879 28.624 168.879 25.872V19.464H167.295V16.704H168.879V13.416H172.263V16.704H175.239V19.464H172.263Z" fill="white"/>
<defs>
<clipPath id="clip0_35212_417">
<rect width="27.4286" height="27.4286" fill="white" transform="translate(6.85715 6.85714)"/>
</clipPath>
</defs>
</svg>
